<svg width="12" height="14" viewBox="0 0 12 14" fill="none" xmlns="http://www.w3.org/2000/svg">
<path d="M1.78557 5.38518V8.96152C1.78557 9.43713 1.41168 9.81701 0.935822 9.81701C0.463055 9.81701 0.0057373 9.43405 0.0057373 8.96152V5.38518C0.0057373 4.91884 0.463055 4.53588 0.935822 4.53588C1.40241 4.53588 1.78557 4.91884 1.78557 5.38518ZM2.11929 10.2339C2.11929 10.7404 2.52716 11.1481 3.03392 11.1481H3.64883L3.6581 13.0351C3.6581 14.1747 5.36377 14.1654 5.36377 13.0351V11.1481H6.51324V13.0351C6.51324 14.1685 8.22818 14.1716 8.22818 13.0351V11.1481H8.85236C9.35294 11.1481 9.76081 10.7404 9.76081 10.2339V4.69338H2.11929V10.2339ZM9.78244 4.39381H2.0853C2.0853 3.07199 2.87633 1.92311 4.05053 1.32396L3.46034 0.233766C3.37382 0.0824354 3.59321 -0.0133043 3.66737 0.116408L4.26682 1.21587C5.34523 0.737172 6.58431 0.761879 7.61328 1.21587L8.20964 0.119496C8.28689 -0.0133044 8.50319 0.0855237 8.41667 0.236854L7.82649 1.32396C8.99141 1.92311 9.78244 3.07199 9.78244 4.39381ZM4.50784 2.67976C4.50784 2.50372 4.3657 2.35548 4.18339 2.35548C4.00727 2.35548 3.86822 2.50372 3.86822 2.67976C3.86822 2.8558 4.01036 3.00404 4.18339 3.00404C4.3657 3.00404 4.50784 2.8558 4.50784 2.67976ZM8.01188 2.67976C8.01188 2.50372 7.86974 2.35548 7.69671 2.35548C7.5144 2.35548 7.37226 2.50372 7.37226 2.67976C7.37226 2.8558 7.5144 3.00404 7.69671 3.00404C7.86974 3.00404 8.01188 2.8558 8.01188 2.67976ZM10.9412 4.53588C10.4746 4.53588 10.0914 4.90957 10.0914 5.38518V8.96152C10.0914 9.43713 10.4746 9.81701 10.9412 9.81701C11.417 9.81701 11.8713 9.43405 11.8713 8.96152V5.38518C11.8713 4.90957 11.414 4.53588 10.9412 4.53588Z" fill="black"/>
</svg>
