<svg width="15" height="14" viewBox="0 0 15 14" fill="none" xmlns="http://www.w3.org/2000/svg">
<path d="M7.55331 3.4224C5.58808 3.4224 4.00292 5.00674 4.00292 6.97094C4.00292 8.93515 5.58808 10.5195 7.55331 10.5195C9.51854 10.5195 11.1037 8.93515 11.1037 6.97094C11.1037 5.00674 9.51854 3.4224 7.55331 3.4224ZM7.55331 9.27796C6.28333 9.27796 5.24509 8.24336 5.24509 6.97094C5.24509 5.69853 6.28024 4.66393 7.55331 4.66393C8.82639 4.66393 9.86153 5.69853 9.86153 6.97094C9.86153 8.24336 8.8233 9.27796 7.55331 9.27796ZM12.077 3.27724C12.077 3.73741 11.7063 4.10493 11.2489 4.10493C10.7885 4.10493 10.4208 3.73432 10.4208 3.27724C10.4208 2.82016 10.7916 2.44956 11.2489 2.44956C11.7063 2.44956 12.077 2.82016 12.077 3.27724ZM14.4285 4.11728C14.376 3.00855 14.1226 2.02645 13.31 1.21729C12.5004 0.408139 11.5178 0.154892 10.4085 0.0993011C9.26516 0.0344452 5.83837 0.0344452 4.69508 0.0993011C3.58886 0.151804 2.60625 0.405051 1.79358 1.21421C0.980918 2.02336 0.73063 3.00547 0.67501 4.11419C0.61012 5.25689 0.61012 8.68191 0.67501 9.82461C0.72754 10.9333 0.980918 11.9154 1.79358 12.7246C2.60625 13.5338 3.58577 13.787 4.69508 13.8426C5.83837 13.9074 9.26516 13.9074 10.4085 13.8426C11.5178 13.7901 12.5004 13.5368 13.31 12.7246C14.1195 11.9154 14.3729 10.9333 14.4285 9.82461C14.4934 8.68191 14.4934 5.25998 14.4285 4.11728ZM12.9515 11.0507C12.7105 11.656 12.2439 12.1224 11.6352 12.3663C10.7236 12.7277 8.56065 12.6443 7.55331 12.6443C6.54598 12.6443 4.3799 12.7246 3.47144 12.3663C2.86581 12.1254 2.39922 11.6591 2.15511 11.0507C1.79358 10.1396 1.87701 7.97776 1.87701 6.97094C1.87701 5.96413 1.79667 3.79918 2.15511 2.8912C2.39613 2.28587 2.86272 1.81953 3.47144 1.57555C4.38299 1.21421 6.54598 1.29759 7.55331 1.29759C8.56065 1.29759 10.7267 1.21729 11.6352 1.57555C12.2408 1.81644 12.7074 2.28279 12.9515 2.8912C13.313 3.80227 13.2296 5.96413 13.2296 6.97094C13.2296 7.97776 13.313 10.1427 12.9515 11.0507Z" fill="black"/>
</svg>
