<svg width="13" height="14" viewBox="0 0 13 14" fill="none" xmlns="http://www.w3.org/2000/svg">
<path d="M10.1519 7.36439C10.1457 6.23096 10.6584 5.37548 11.6961 4.74545C11.1154 3.91467 10.2383 3.45759 9.0802 3.36803C7.98383 3.28156 6.78553 4.00732 6.34699 4.00732C5.88373 4.00732 4.82133 3.39891 3.98746 3.39891C2.26415 3.42671 0.432739 4.77324 0.432739 7.51263C0.432739 8.32179 0.580981 9.15874 0.877466 10.0204C1.27278 11.1538 2.69961 13.9334 4.18821 13.887C4.96648 13.8685 5.51621 13.3342 6.5292 13.3342C7.5113 13.3342 8.02089 13.887 8.88872 13.887C10.3897 13.8654 11.6806 11.3391 12.0574 10.2026C10.0438 9.25448 10.1519 7.42307 10.1519 7.36439ZM8.40385 2.29327C9.24697 1.29264 9.16976 0.381567 9.14506 0.0541992C8.40076 0.0974365 7.5391 0.560693 7.04805 1.13204C6.50758 1.74354 6.18948 2.5002 6.25742 3.35259C7.06349 3.41436 7.79852 3.00051 8.40385 2.29327Z" fill="black"/>
</svg>
